<?xml version="1.0" encoding="utf-8"?>
<!-- Generator: Adobe Illustrator 18.0.0, SVG Export Plug-In . SVG Version: 6.00 Build 0)  -->
<!DOCTYPE svg PUBLIC "-//W3C//DTD SVG 1.1//EN" "http://www.w3.org/Graphics/SVG/1.1/DTD/svg11.dtd">
<svg version="1.1" xmlns="http://www.w3.org/2000/svg" xmlns:xlink="http://www.w3.org/1999/xlink" x="0px" y="0px"
	 viewBox="0 0 300 252.8" enable-background="new 0 0 300 252.8" xml:space="preserve">
<g id="grisalto">
	
		<rect x="74.3" y="56.7" transform="matrix(0.7071 -0.7071 0.7071 0.7071 -49.7049 144.8525)" fill="#BEB8BB" width="151.4" height="151.4"/>
</g>
<g id="grisbajo">
	
		<rect x="74.3" y="42.5" transform="matrix(0.7071 -0.7071 0.7071 0.7071 -39.6714 140.6965)" fill="#E4DEDE" width="151.4" height="151.4"/>
</g>
<g id="canceleria">
	<g>
		<path fill="#576972" d="M20.5,174c0-2.4,1.8-4.1,4.6-4.1c0.3,0,0.5,0,0.7,0c0.2,0,0.5,0.1,0.6,0.1c0,0.4,0,0.8-0.1,1.4h0
			c-0.1,0-0.3-0.1-0.4-0.1c-0.2,0-0.5-0.1-0.8-0.1c-1.8,0-3,1.1-3,2.7c0,1.7,1.1,2.8,2.8,2.8c0.4,0,0.6,0,0.9-0.1
			c0.2,0,0.3-0.1,0.5-0.1h0c0,0.3,0,1.1,0.1,1.4c-0.2,0-0.5,0.1-0.7,0.1c-0.4,0.1-0.6,0.1-1,0.1C22.4,178.2,20.5,176.6,20.5,174
			L20.5,174z"/>
		<path fill="#576972" d="M29.1,176.5c-0.4,1-0.6,1.5-0.6,1.6v0h-0.8h-0.8v0c0-0.1,0.2-0.5,1.6-3.6l2-4.6h0.2l1.9,4.6
			c1.3,3.1,1.5,3.5,1.5,3.6v0h-0.8h-0.9v0c0-0.1-0.2-0.5-0.6-1.6H29.1z M31.3,175.3L31.3,175.3c-0.6-1.6-0.7-2-0.8-2.3h0
			c-0.1,0.3-0.2,0.8-0.9,2.3v0H31.3z"/>
		<path fill="#576972" d="M41.5,178.2h-0.2c-1.8-1.8-2.9-2.9-3.6-3.6c-0.5-0.5-0.9-0.8-1.4-1.5h0c0,0.4,0,0.7,0,1.5v3.4v0h-0.8h-0.7
			v0v-3.6V170H35c1.9,1.9,3,2.9,3.7,3.7c0.4,0.5,0.9,0.9,1.3,1.4h0c0-0.5,0-0.8,0-1.7v-3.2v0h0.8h0.7v0v3.4V178.2z"/>
		<path fill="#576972" d="M42.6,174c0-2.4,1.8-4.1,4.6-4.1c0.3,0,0.5,0,0.7,0c0.2,0,0.5,0.1,0.6,0.1c0,0.4,0,0.8-0.1,1.4h0
			c-0.1,0-0.3-0.1-0.4-0.1c-0.2,0-0.5-0.1-0.8-0.1c-1.8,0-3,1.1-3,2.7c0,1.7,1.1,2.8,2.8,2.8c0.4,0,0.6,0,0.9-0.1
			c0.2,0,0.3-0.1,0.5-0.1h0c0,0.3,0,1.1,0.1,1.4c-0.2,0-0.5,0.1-0.7,0.1c-0.4,0.1-0.6,0.1-1,0.1C44.6,178.2,42.6,176.6,42.6,174
			L42.6,174z"/>
		<path fill="#576972" d="M49.9,173.4v-3.4v0H52h1.9v1.3h0h-1.2h-1.3v2h1.4h0.9h0v0.6v0.7h0h-0.8h-1.4v2v0.2h1.8H54h0v1.3h-1.9h-2.2
			v0v-3.6V173.4z"/>
		<path fill="#576972" d="M55.3,173.4v-3.4v0h0.8h0.8v0v3.4v1v2.2c0,0.1,0,0.1,0,0.1h1.7H59h0.3h0v1.3h-1.9h-2.2V178v-3.6V173.4z"/>
		<path fill="#576972" d="M60.4,173.4v-3.4v0h2.1h1.9v1.3h0h-1.2h-1.3v2h1.4h0.9h0v0.6v0.7h0h-0.8h-1.4v2v0.2h1.8h0.8h0v1.3h-1.9
			h-2.2v0v-3.6V173.4z"/>
		<path fill="#576972" d="M65.7,173.4v-3.3v0c0.2,0,0.4,0,0.6,0c0.2,0,0.6,0,0.9,0c0.6,0,1.1,0.1,1.6,0.2c0.6,0.2,1.5,0.7,1.5,2.2
			c0,1-0.5,1.6-0.9,1.9c-0.2,0.2-0.4,0.3-0.6,0.4v0c0.1,0.1,0.2,0.3,1.9,2.6c0.2,0.3,0.6,0.8,0.6,0.8v0h-0.9h-0.6h-0.3
			c-0.6-0.9-1.3-1.9-2.2-3.2h-0.2v0.4v2.8v0h-0.7h-0.7v0v-3.6V173.4z M68.9,172.5c0-0.8-0.5-1.2-1.3-1.2c-0.2,0-0.3,0-0.4,0v2.4
			c0.1,0,0.2,0,0.3,0c0.3,0,0.6-0.1,0.8-0.2C68.5,173.4,68.9,173.1,68.9,172.5L68.9,172.5z"/>
		<path fill="#576972" d="M73.5,174.5v3.6v0h-0.7H72v0v-3.6v-1v-3.4v0h0.8h0.8v0v3.4V174.5z M72.1,169.2l1.8-1.4l0.4,0.6l-1.9,1.1
			L72.1,169.2z"/>
		<path fill="#576972" d="M76.5,176.5c-0.4,1-0.6,1.5-0.6,1.6v0h-0.8h-0.8v0c0-0.1,0.2-0.5,1.6-3.6l2-4.6H78l1.9,4.6
			c1.3,3.1,1.5,3.5,1.5,3.6v0h-0.8h-0.9v0c0-0.1-0.2-0.5-0.6-1.6H76.5z M78.7,175.3L78.7,175.3c-0.6-1.6-0.7-2-0.8-2.3h0
			c-0.1,0.3-0.2,0.8-0.9,2.3v0H78.7z"/>
		<path fill="#576972" d="M86.2,176.5c-0.4,1-0.6,1.5-0.6,1.6v0h-0.8h-0.8v0c0-0.1,0.2-0.5,1.6-3.6l2-4.6h0.2l1.9,4.6
			c1.3,3.1,1.5,3.5,1.5,3.6v0h-0.8h-0.9v0c0-0.1-0.2-0.5-0.6-1.6H86.2z M88.4,175.3L88.4,175.3c-0.6-1.6-0.7-2-0.8-2.3h0
			c-0.1,0.3-0.2,0.8-0.9,2.3v0H88.4z"/>
		<path fill="#576972" d="M91.9,173.4v-3.3v0c0.2,0,0.4,0,0.6,0c0.2,0,0.6,0,0.9,0c0.6,0,1.1,0.1,1.6,0.2c0.6,0.2,1.5,0.7,1.5,2.2
			c0,1-0.5,1.6-0.9,1.9c-0.2,0.2-0.4,0.3-0.6,0.4v0c0.1,0.1,0.2,0.3,1.9,2.6c0.2,0.3,0.6,0.8,0.6,0.8v0h-0.9h-0.6h-0.3
			c-0.6-0.9-1.3-1.9-2.2-3.2h-0.2v0.4v2.8v0h-0.7h-0.7v0v-3.6V173.4z M95,172.5c0-0.8-0.5-1.2-1.3-1.2c-0.2,0-0.3,0-0.4,0v2.4
			c0.1,0,0.2,0,0.3,0c0.3,0,0.6-0.1,0.8-0.2C94.7,173.4,95,173.1,95,172.5L95,172.5z"/>
		<path fill="#576972" d="M106,174c0,1-0.4,1.8-0.7,2.2c-0.3,0.4-0.7,0.9-1.3,1.2v0c0.3,0.1,0.6,0.3,0.9,0.4
			c0.3,0.1,0.6,0.2,0.9,0.3c0.1,0.1,0.3,0.1,0.4,0.1l0,0c-0.2,0.3-0.7,0.8-0.9,1h0c-0.4-0.1-0.9-0.4-1.3-0.6c-0.4-0.2-1-0.5-1.2-0.7
			c-0.1,0-0.3,0.1-0.5,0.1c-0.2,0-0.4,0-0.5,0c-2.4,0-4.2-1.8-4.2-4.1c0-2.3,1.8-4.2,4.3-4.2C104.2,169.9,106,171.7,106,174L106,174
			z M104.4,174c0-1.5-1.1-2.7-2.6-2.7c-1.5,0-2.6,1.2-2.6,2.7c0,1.5,1.1,2.7,2.6,2.7C103.3,176.8,104.4,175.6,104.4,174L104.4,174z"
			/>
		<path fill="#576972" d="M107,173.4v-3.4v0h0.8h0.8v0v3.4v1c0,0.8,0.1,1.3,0.3,1.6c0.3,0.5,0.9,0.7,1.4,0.7c0.6,0,1.1-0.2,1.4-0.7
			c0.3-0.4,0.3-0.9,0.3-1.7v-1v-3.4v0h0.8h0.8v0v3.4v1c0,1-0.1,1.7-0.4,2.3c-0.4,0.8-1.4,1.5-2.8,1.5c-1.4,0-2.4-0.6-2.9-1.6
			c-0.3-0.6-0.4-1.2-0.4-2.2V173.4z"/>
		<path fill="#576972" d="M116.6,174.5v3.6v0h-0.7H115v0v-3.6v-1v-3.4v0h0.8h0.8v0v3.4V174.5z"/>
		<path fill="#576972" d="M119.7,171.4h-1.5h-0.6h-0.1V170h2.4h1h2.5v1.3h0h-0.6h-1.5v3.1v3.6v0h-0.8h-0.8v0v-3.6V171.4z"/>
		<path fill="#576972" d="M124.4,173.4v-3.4v0h2.1h1.9v1.3h0h-1.2H126v2h1.4h0.9h0v0.6v0.7h0h-0.8H126v2v0.2h1.8h0.8h0v1.3h-1.9
			h-2.2v0v-3.6V173.4z"/>
		<path fill="#576972" d="M129.4,174c0-2.4,1.8-4.1,4.6-4.1c0.3,0,0.5,0,0.7,0c0.2,0,0.5,0.1,0.6,0.1c0,0.4,0,0.8-0.1,1.4h0
			c-0.1,0-0.3-0.1-0.4-0.1c-0.2,0-0.5-0.1-0.8-0.1c-1.8,0-3,1.1-3,2.7c0,1.7,1.1,2.8,2.8,2.8c0.4,0,0.6,0,0.9-0.1
			c0.2,0,0.3-0.1,0.5-0.1h0c0,0.3,0,1.1,0.1,1.4c-0.2,0-0.5,0.1-0.7,0.1c-0.4,0.1-0.6,0.1-1,0.1C131.3,178.2,129.4,176.6,129.4,174
			L129.4,174z"/>
		<path fill="#576972" d="M138.2,171.4h-1.5h-0.6H136V170h2.4h1h2.5v1.3h0h-0.6h-1.5v3.1v3.6v0H139h-0.8v0v-3.6V171.4z"/>
		<path fill="#576972" d="M150.4,174c0,2.3-1.8,4.2-4.2,4.2c-2.3,0-4.1-1.8-4.1-4.1c0-2.3,1.8-4.1,4.3-4.1
			C148.7,169.9,150.4,171.7,150.4,174L150.4,174z M148.8,174c0-1.5-1.1-2.7-2.6-2.7c-1.5,0-2.6,1.2-2.6,2.7c0,1.5,1.1,2.7,2.6,2.7
			C147.8,176.8,148.8,175.6,148.8,174L148.8,174z M145.5,169.1l1.8-1.4l0.4,0.6l-1.9,1.1L145.5,169.1z"/>
		<path fill="#576972" d="M158.2,178.2H158c-1.8-1.8-2.9-2.9-3.6-3.6c-0.5-0.5-0.9-0.8-1.4-1.5h0c0,0.4,0,0.7,0,1.5v3.4v0h-0.8h-0.7
			v0v-3.6V170h0.2c1.9,1.9,3,2.9,3.7,3.7c0.4,0.5,0.9,0.9,1.3,1.4h0c0-0.5,0-0.8,0-1.7v-3.2v0h0.8h0.7v0v3.4V178.2z"/>
		<path fill="#576972" d="M161.3,174.5v3.6v0h-0.7h-0.8v0v-3.6v-1v-3.4v0h0.8h0.8v0v3.4V174.5z"/>
		<path fill="#576972" d="M162.5,174c0-2.4,1.8-4.1,4.6-4.1c0.3,0,0.5,0,0.7,0c0.2,0,0.5,0.1,0.6,0.1c0,0.4,0,0.8-0.1,1.4h0
			c-0.1,0-0.3-0.1-0.4-0.1c-0.2,0-0.5-0.1-0.8-0.1c-1.8,0-3,1.1-3,2.7c0,1.7,1.1,2.8,2.8,2.8c0.4,0,0.6,0,0.9-0.1
			c0.2,0,0.3-0.1,0.5-0.1h0c0,0.3,0,1.1,0.1,1.4c-0.2,0-0.5,0.1-0.7,0.1c-0.4,0.1-0.6,0.1-1,0.1C164.4,178.2,162.5,176.6,162.5,174
			L162.5,174z"/>
		<path fill="#576972" d="M171.1,176.5c-0.4,1-0.6,1.5-0.6,1.6v0h-0.8h-0.8v0c0-0.1,0.2-0.5,1.6-3.6l2-4.6h0.2l1.9,4.6
			c1.3,3.1,1.5,3.5,1.5,3.6v0h-0.8h-0.9v0c0-0.1-0.2-0.5-0.6-1.6H171.1z M173.3,175.3L173.3,175.3c-0.6-1.6-0.7-2-0.8-2.3h0
			c-0.1,0.3-0.2,0.8-0.9,2.3v0H173.3z"/>
		<path fill="#576972" d="M182.7,174.7v0.2v3.1v0H182h-0.8v0V175v-0.1l-0.7-1.3c-1.7-3-1.9-3.4-1.9-3.5v0h0.9h0.8v0
			c0,0.1,0.3,0.5,0.8,1.6c0.3,0.6,0.6,1.2,0.9,1.6h0c0.2-0.5,0.5-1,0.9-1.6c0.6-1.1,0.8-1.5,0.9-1.6v0h0.9h0.7v0
			c0,0.1-0.3,0.5-1.9,3.5L182.7,174.7z"/>
		<path fill="#576972" d="M195.2,173.9c0,1.5-0.6,2.7-1.7,3.4c-0.7,0.5-1.7,0.8-2.8,0.8c-0.4,0-0.9,0-1.2,0c-0.2,0-0.5,0-0.7,0v0
			v-3.6v-1v-3.3v-0.1c0.2,0,0.5,0,0.9-0.1c0.4,0,0.8,0,1.1,0c1.1,0,2,0.2,2.7,0.7C194.7,171.4,195.2,172.7,195.2,173.9L195.2,173.9z
			 M193.6,173.9c0-0.8-0.3-1.6-0.9-2.1c-0.4-0.3-1-0.5-1.7-0.5c-0.2,0-0.5,0-0.6,0v5.2c0,0,0,0,0,0c0.2,0,0.4,0,0.6,0
			c0.6,0,1.2-0.2,1.6-0.5C193.1,175.7,193.6,175,193.6,173.9L193.6,173.9z"/>
		<path fill="#576972" d="M197.8,174.5v3.6v0h-0.7h-0.8v0v-3.6v-1v-3.4v0h0.8h0.8v0v3.4V174.5z"/>
		<path fill="#576972" d="M203.1,176c0,1.2-1,2.2-2.6,2.2c-0.5,0-1.1-0.1-1.4-0.2c0-0.5,0-0.7,0-1.4h0c0.1,0.1,0.2,0.1,0.4,0.1
			c0.2,0.1,0.5,0.1,0.9,0.1c0.6,0,1.1-0.3,1.1-0.9c0-0.4-0.2-0.7-0.6-1c-0.3-0.3-0.6-0.5-0.9-0.8c-0.5-0.5-0.9-1.1-0.9-1.9
			c0-1.2,0.8-2.3,2.6-2.3c0.4,0,0.8,0.1,1.1,0.1c0,0.5,0,0.7,0,1.4h0c-0.1,0-0.3-0.1-0.4-0.1c-0.1,0-0.3-0.1-0.5-0.1
			c-0.6,0-1.1,0.3-1.1,0.9c0,0.3,0.1,0.6,0.4,0.8c0.2,0.2,0.6,0.5,1,0.9C202.7,174.5,203.1,175.1,203.1,176L203.1,176z"/>
		<path fill="#576972" d="M204.3,173.4v-3.4v0h2.1h1.9v1.3h0h-1.2h-1.3v2h1.4h0.9h0v0.6v0.7h0h-0.8h-1.4v2v0.2h1.8h0.8h0v1.3h-1.9
			h-2.2v0v-3.6V173.4z"/>
		<path fill="#576972" d="M216.4,178.2h-0.2c-1.8-1.8-2.9-2.9-3.6-3.6c-0.5-0.5-0.9-0.8-1.4-1.5h0c0,0.4,0,0.7,0,1.5v3.4v0h-0.8
			h-0.7v0v-3.6V170h0.2c1.9,1.9,3,2.9,3.7,3.7c0.4,0.5,0.9,0.9,1.3,1.4h0c0-0.5,0-0.8,0-1.7v-3.2v0h0.8h0.7v0v3.4V178.2z
			 M211.6,169.6c0.1-0.5,0.5-1.1,1-1.1c0.3,0,0.5,0.1,0.7,0.3c0.2,0.1,0.3,0.3,0.5,0.3c0.2,0,0.4-0.2,0.5-0.5l0.4,0.1
			c-0.1,0.6-0.5,1.1-1,1.1c-0.3,0-0.4-0.1-0.7-0.2c-0.2-0.2-0.4-0.3-0.6-0.3c-0.2,0-0.3,0.1-0.5,0.5L211.6,169.6z"/>
		<path fill="#576972" d="M225.9,174c0,2.3-1.8,4.2-4.2,4.2c-2.3,0-4.1-1.8-4.1-4.1c0-2.3,1.8-4.1,4.3-4.1
			C224.1,169.9,225.9,171.7,225.9,174L225.9,174z M224.3,174c0-1.5-1.1-2.7-2.6-2.7c-1.5,0-2.6,1.2-2.6,2.7c0,1.5,1.1,2.7,2.6,2.7
			C223.2,176.8,224.3,175.6,224.3,174L224.3,174z"/>
		<path fill="#576972" d="M230,173.4v-3.4v0h2.1h1.9v1.3h0h-1.2h-1.3v2h1.4h0.9h0v0.6v0.7h0h-0.8h-1.4v2v0.2h1.8h0.8h0v1.3h-1.9H230
			v0v-3.6V173.4z"/>
		<path fill="#576972" d="M242,178.2h-0.2c-1.8-1.8-2.9-2.9-3.6-3.6c-0.5-0.5-0.9-0.8-1.4-1.5h0c0,0.4,0,0.7,0,1.5v3.4v0h-0.8h-0.7
			v0v-3.6V170h0.2c1.9,1.9,3,2.9,3.7,3.7c0.4,0.5,0.9,0.9,1.3,1.4h0c0-0.5,0-0.8,0-1.7v-3.2v0h0.8h0.7v0v3.4V178.2z"/>
		<path fill="#576972" d="M247.7,176.5c-0.4,1-0.6,1.5-0.6,1.6v0h-0.8h-0.8v0c0-0.1,0.2-0.5,1.6-3.6l2-4.6h0.2l1.9,4.6
			c1.3,3.1,1.5,3.5,1.5,3.6v0h-0.8H251v0c0-0.1-0.2-0.5-0.6-1.6H247.7z M249.9,175.3L249.9,175.3c-0.6-1.6-0.7-2-0.8-2.3h0
			c-0.1,0.3-0.2,0.8-0.9,2.3v0H249.9z"/>
		<path fill="#576972" d="M252.8,174c0-2.4,1.8-4.1,4.6-4.1c0.3,0,0.5,0,0.7,0c0.2,0,0.5,0.1,0.6,0.1c0,0.4,0,0.8-0.1,1.4h0
			c-0.1,0-0.3-0.1-0.4-0.1c-0.2,0-0.5-0.1-0.8-0.1c-1.8,0-3,1.1-3,2.7c0,1.7,1.1,2.8,2.8,2.8c0.4,0,0.6,0,0.9-0.1
			c0.2,0,0.3-0.1,0.5-0.1h0c0,0.3,0,1.1,0.1,1.4c-0.2,0-0.5,0.1-0.7,0.1c-0.4,0.1-0.6,0.1-1,0.1C254.7,178.2,252.8,176.6,252.8,174
			L252.8,174z"/>
		<path fill="#576972" d="M260.1,173.4v-3.4v0h2.1h1.9v1.3h0h-1.2h-1.3v2h1.4h0.9h0v0.6v0.7h0H263h-1.4v2v0.2h1.8h0.8h0v1.3h-1.9
			h-2.2v0v-3.6V173.4z"/>
		<path fill="#576972" d="M265.4,173.4v-3.3v0c0.2,0,0.4,0,0.6,0c0.2,0,0.6,0,0.9,0c0.6,0,1.1,0.1,1.6,0.2c0.6,0.2,1.5,0.7,1.5,2.2
			c0,1-0.5,1.6-0.9,1.9c-0.2,0.2-0.4,0.3-0.6,0.4v0c0.1,0.1,0.2,0.3,1.9,2.6c0.2,0.3,0.6,0.8,0.6,0.8v0h-0.9h-0.6h-0.3
			c-0.6-0.9-1.3-1.9-2.2-3.2h-0.2v0.4v2.8v0h-0.7h-0.7v0v-3.6V173.4z M268.5,172.5c0-0.8-0.5-1.2-1.3-1.2c-0.2,0-0.3,0-0.4,0v2.4
			c0.1,0,0.2,0,0.3,0c0.3,0,0.6-0.1,0.8-0.2C268.2,173.4,268.5,173.1,268.5,172.5L268.5,172.5z"/>
		<path fill="#576972" d="M279.5,174c0,2.3-1.8,4.2-4.2,4.2c-2.3,0-4.1-1.8-4.1-4.1c0-2.3,1.8-4.1,4.3-4.1
			C277.7,169.9,279.5,171.7,279.5,174L279.5,174z M277.9,174c0-1.5-1.1-2.7-2.6-2.7c-1.5,0-2.6,1.2-2.6,2.7c0,1.5,1.1,2.7,2.6,2.7
			C276.8,176.8,277.9,175.6,277.9,174L277.9,174z"/>
	</g>
</g>
<g id="inox">
	<g>
		<linearGradient id="SVGID_1_" gradientUnits="userSpaceOnUse" x1="236.4713" y1="23.492" x2="112.2315" y2="130.0803">
			<stop  offset="0" style="stop-color:#7D7D7D"/>
			<stop  offset="1" style="stop-color:#5D606A"/>
		</linearGradient>
		<path fill="url(#SVGID_1_)" d="M144,85h8.9V113H144V85z"/>
		<linearGradient id="SVGID_2_" gradientUnits="userSpaceOnUse" x1="248.2722" y1="37.2471" x2="124.0324" y2="143.8354">
			<stop  offset="0" style="stop-color:#7D7D7D"/>
			<stop  offset="1" style="stop-color:#5D606A"/>
		</linearGradient>
		<path fill="url(#SVGID_2_)" d="M156.8,85h14.9l14.6,20.8h0.9L187.1,85h8.7V113h-14.8l-14.7-20.8h-0.9l0.2,20.8h-8.7V85z"/>
		<linearGradient id="SVGID_3_" gradientUnits="userSpaceOnUse" x1="266.0668" y1="57.9886" x2="141.827" y2="164.5769">
			<stop  offset="0" style="stop-color:#7D7D7D"/>
			<stop  offset="1" style="stop-color:#5D606A"/>
		</linearGradient>
		<path fill="url(#SVGID_3_)" d="M218.3,84.6c6,0,10.2,0.2,12.4,0.5c3.3,0.4,5.3,2,6,4.6c0.5,1.8,0.8,4.9,0.8,9.3
			c0,4.4-0.3,7.5-0.8,9.3c-0.7,2.7-2.7,4.2-6,4.6c-2.3,0.3-6.4,0.5-12.4,0.5c-6.1,0-10.3-0.2-12.5-0.5c-3.3-0.4-5.3-2-6-4.6
			c-0.5-1.8-0.8-5-0.8-9.5c0-4.3,0.3-7.3,0.8-9.1c0.7-2.7,2.7-4.2,6-4.6C208.1,84.8,212.2,84.6,218.3,84.6z M218.3,91.9
			c-4.5,0-7.2,0.1-8.1,0.3c-1.1,0.3-1.7,0.9-2.1,1.8c-0.3,0.9-0.5,2.8-0.5,5.7c0,1.7,0.1,2.9,0.3,3.7c0.3,1.4,1.4,2.2,3.1,2.4
			c1.3,0.2,3.7,0.2,7.4,0.2c3.4,0,5.7-0.1,6.8-0.2c1.1-0.1,2-0.4,2.5-0.8c0.5-0.4,0.8-0.9,1-1.7c0.2-0.7,0.3-2,0.3-3.7
			c0-2-0.1-3.5-0.2-4.4c-0.1-0.9-0.4-1.7-0.7-2.1c-0.5-0.6-1.2-1-2.2-1.1C224.7,92,222.2,91.9,218.3,91.9z"/>
		<linearGradient id="SVGID_4_" gradientUnits="userSpaceOnUse" x1="283.4187" y1="78.2141" x2="159.1789" y2="184.8024">
			<stop  offset="0" style="stop-color:#7D7D7D"/>
			<stop  offset="1" style="stop-color:#5D606A"/>
		</linearGradient>
		<path fill="url(#SVGID_4_)" d="M238.5,85h11.6l8.6,9.8l8.7-9.8h11.8l-13.5,13.8l14.1,14.1h-12l-9.2-10.1l-9.1,10.1h-12.3
			l14.3-14.1L238.5,85z"/>
	</g>
	<g>
		<linearGradient id="SVGID_5_" gradientUnits="userSpaceOnUse" x1="133.3669" y1="96.699" x2="61.068" y2="127.7079">
			<stop  offset="0" style="stop-color:#7D7D7D"/>
			<stop  offset="1" style="stop-color:#5D606A"/>
		</linearGradient>
		<polygon fill="url(#SVGID_5_)" points="76.5,165 133,144.5 133,91.2 76.5,73.4 		"/>
		<polygon fill="#576972" points="76.5,165 20.1,144.5 20.1,91.1 76.5,73.4 		"/>
		<ellipse fill="#576972" cx="76.5" cy="162.7" rx="4.8" ry="2.3"/>
		<g>
			<polygon fill="#FFFFFF" points="20.1,92.4 20.1,96.2 76.5,80.2 76.5,76.2 			"/>
			<polygon fill="#FFFFFF" points="20.1,103.7 20.1,105.2 76.5,95.2 76.5,93.1 			"/>
			<polygon fill="#FFFFFF" points="20.1,113.9 20.1,115.4 76.5,112.6 76.5,110.5 			"/>
			<polygon fill="#FFFFFF" points="76.5,145.9 76.5,148 20.1,135.4 20.1,133.9 			"/>
			<polygon fill="#FFFFFF" points="76.5,128.4 76.5,130.5 20.1,125.7 20.1,124.2 			"/>
		</g>
		<g>
			<polygon fill="#FFFFFF" points="133,92.4 133,96.2 76.5,80.2 76.5,76.2 			"/>
			<polygon fill="#FFFFFF" points="133,103.7 133,105.2 76.5,95.2 76.5,93.1 			"/>
			<polygon fill="#FFFFFF" points="133,113.9 133,115.4 76.5,112.6 76.5,110.5 			"/>
			<polygon fill="#FFFFFF" points="76.5,145.9 76.5,148 133,135.4 133,133.9 			"/>
			<polygon fill="#FFFFFF" points="76.5,128.4 76.5,130.5 133,125.7 133,124.2 			"/>
		</g>
		<path fill="#FFFFFF" d="M78.5,161.4V87.7h-3.8v73.7c0,0,0,0,0,0c0,0.5,0.9,0.9,1.9,0.9S78.5,161.9,78.5,161.4
			C78.5,161.4,78.5,161.4,78.5,161.4z"/>
		<ellipse fill="#576972" cx="76.5" cy="87.7" rx="1.9" ry="1.1"/>
		<rect x="76" y="80.3" fill="#FFFFFF" width="1.1" height="7.4"/>
		<ellipse fill="#FFFFFF" cx="76.6" cy="87.7" rx="0.5" ry="0.2"/>
	</g>
</g>
<g id="cad">
	<g>
		<linearGradient id="SVGID_6_" gradientUnits="userSpaceOnUse" x1="262.5288" y1="53.8647" x2="138.289" y2="160.453">
			<stop  offset="0" style="stop-color:#7D7D7D"/>
			<stop  offset="1" style="stop-color:#5D606A"/>
		</linearGradient>
		<path fill="url(#SVGID_6_)" d="M175.5,141.2h9.9c0.1,1.6,0.1,2.6,0.1,3.1c0,2.5-0.4,4.5-1.1,5.9c-0.8,1.6-2.4,2.7-4.8,3.2
			c-2.4,0.6-6.5,0.9-12.4,0.9c-6.2,0-10.6-0.1-13.2-0.4c-2.6-0.2-4.6-0.7-5.9-1.4c-1.2-0.6-2.1-1.4-2.7-2.5c-0.6-1-1-2.5-1.1-4.3
			c-0.1-1.5-0.2-4.1-0.2-8c0-3.7,0.1-6.4,0.2-8.1c0.1-1.7,0.4-2.9,0.8-3.9c0.9-2.1,2.7-3.4,5.5-4c2.8-0.6,8.3-0.9,16.6-0.9
			c4.2,0,7.2,0.1,9.1,0.3c1.9,0.2,3.4,0.5,4.5,1.1c1.5,0.7,2.5,1.7,3.1,3.1c0.6,1.4,0.9,3.4,0.9,6c0,0.1,0,0.7,0,1.6H175
			c0-1.1-0.1-1.8-0.2-2.2c-0.1-0.4-0.3-0.7-0.5-0.9c-0.4-0.3-1.3-0.6-2.9-0.7c-1.5-0.2-3.9-0.2-7-0.2c-3.1,0-5.2,0.1-6.4,0.2
			c-1.2,0.1-2,0.4-2.5,0.8c-0.6,0.5-1,1.3-1.2,2.4c-0.2,1.1-0.3,2.9-0.3,5.4c0,2.5,0.1,4.2,0.3,5.2c0.2,1,0.6,1.7,1.2,2.2
			c0.6,0.4,1.4,0.7,2.6,0.9c1.2,0.1,3.3,0.2,6.4,0.2c3.8,0,6.3-0.1,7.6-0.2c1.3-0.1,2.1-0.4,2.5-0.8
			C175.2,144.5,175.5,143.2,175.5,141.2z"/>
		<linearGradient id="SVGID_7_" gradientUnits="userSpaceOnUse" x1="285.451" y1="80.5829" x2="161.2112" y2="187.1712">
			<stop  offset="0" style="stop-color:#7D7D7D"/>
			<stop  offset="1" style="stop-color:#5D606A"/>
		</linearGradient>
		<path fill="url(#SVGID_7_)" d="M224,153.7l-2.8-5.5h-21.4l-2.8,5.5h-11.3l17.2-32.4h15.3l16.9,32.4H224z M217.8,141.1l-6.2-12.3
			h-2l-6.2,12.3H217.8z"/>
		<linearGradient id="SVGID_8_" gradientUnits="userSpaceOnUse" x1="300.6373" y1="98.2842" x2="176.3975" y2="204.8724">
			<stop  offset="0" style="stop-color:#7D7D7D"/>
			<stop  offset="1" style="stop-color:#5D606A"/>
		</linearGradient>
		<path fill="url(#SVGID_8_)" d="M236.7,153.7v-32.4H260c4.1,0,6.9,0,8.1,0.1c1.3,0.1,2.6,0.2,4,0.5c3.2,0.7,5.4,2.5,6.3,5.5
			c0.4,1.1,0.6,2.4,0.7,3.7c0.1,1.3,0.2,3.3,0.2,5.9c0,2.9-0.1,5.1-0.2,6.6c-0.2,1.5-0.4,2.8-0.8,4.1c-1,2.8-2.9,4.6-6,5.3
			c-1.4,0.3-2.9,0.5-4.5,0.6c-1.6,0.1-4.2,0.2-7.8,0.2H236.7z M246.4,145.5h13.7c2.5,0,4.4-0.1,5.6-0.2c1.2-0.2,2-0.5,2.5-0.9
			c0.5-0.5,0.9-1.2,1.1-2.2c0.2-1,0.3-2.5,0.3-4.5c0-2-0.1-3.5-0.3-4.5c-0.2-1-0.5-1.8-1-2.3c-0.5-0.6-1.3-1-2.3-1.1
			c-1-0.2-3-0.2-6.1-0.2h-13.6V145.5z"/>
	</g>
</g>
</svg>
